<svg width="42" height="44" viewBox="0 0 42 44" fill="none" xmlns="http://www.w3.org/2000/svg">
<path d="M21.8613 27.4123C21.6328 27.4123 21.4137 27.3173 21.2525 27.1478L18.4173 24.1776L15.5822 27.1478C15.4207 27.317 15.2015 27.4123 14.9733 27.4123H11.5293C11.0538 27.4123 10.6683 27.0085 10.6683 26.5103C10.6683 26.0122 11.0538 25.6083 11.5293 25.6083H14.6167L17.8086 22.2645C17.9701 22.0953 18.1889 22.0003 18.4174 22.0003C18.6456 22.0003 18.8647 22.0953 19.0259 22.2645L21.8614 25.2347L26.4187 20.4604C26.5798 20.2912 26.799 20.1962 27.0272 20.1962C27.2556 20.1962 27.4745 20.2912 27.636 20.4604L31.08 24.0684C31.4062 24.4223 31.4017 24.9849 31.0694 25.333C30.7374 25.6808 30.2004 25.6858 29.8627 25.3437L27.0275 22.3736L22.4702 27.1478H22.4699C22.3088 27.3174 22.0896 27.4124 21.8614 27.4124L21.8613 27.4123ZM14.1122 33.7261C14.1122 33.4871 14.0216 33.2575 13.8601 33.0883C13.6986 32.9191 13.4797 32.8241 13.2512 32.8241H11.5292C10.3878 32.8227 9.29355 32.3471 8.48636 31.5018C7.67951 30.6561 7.22546 29.5097 7.22415 28.3143V26.5103C7.22415 26.0122 6.83867 25.6083 6.36315 25.6083C5.88763 25.6083 5.50215 26.0122 5.50215 26.5103V28.3143C5.50407 29.9881 6.13981 31.593 7.26968 32.7767C8.39949 33.9603 9.93118 34.6261 11.5292 34.6281H13.2512C13.4797 34.6284 13.6986 34.5334 13.8601 34.3642C14.0216 34.195 14.1122 33.9654 14.1122 33.7261ZM36.4986 28.314V26.51L36.4982 26.5103C36.4982 26.0122 36.1128 25.6083 35.6372 25.6083C35.1617 25.6083 34.7762 26.0122 34.7762 26.5103V28.3143C34.775 29.5097 34.3209 30.6561 33.514 31.5018C32.7069 32.347 31.6125 32.8227 30.4712 32.8241H28.7492C28.2736 32.8241 27.8882 33.2279 27.8882 33.7261C27.8882 34.2243 28.2736 34.6281 28.7492 34.6281H30.4712C32.0691 34.6261 33.6012 33.9604 34.7311 32.7767C35.8609 31.5931 36.4964 29.9881 36.4982 28.3143L36.4986 28.314ZM36.4986 17.4902V15.6862L36.4982 15.6865C36.4963 14.0124 35.8609 12.4078 34.7311 11.2238C33.6012 10.0402 32.0692 9.3744 30.4712 9.37242H28.7492C28.2736 9.37242 27.8882 9.77626 27.8882 10.2744C27.8882 10.7726 28.2736 11.1764 28.7492 11.1764H30.4712C31.6125 11.1778 32.7068 11.6534 33.514 12.4987C34.3209 13.3444 34.7749 14.4908 34.7762 15.6865V17.4905C34.7762 17.9887 35.1617 18.3925 35.6372 18.3925C36.1128 18.3925 36.4982 17.9887 36.4982 17.4905L36.4986 17.4902ZM7.22408 17.4905V15.6865C7.22536 14.4908 7.67941 13.3444 8.48629 12.4987C9.29346 11.6535 10.3878 11.1778 11.5292 11.1764H13.2512C13.7267 11.1764 14.1122 10.7726 14.1122 10.2744C14.1122 9.77626 13.7267 9.37242 13.2512 9.37242H11.5292C9.93119 9.37444 8.3995 10.0401 7.2696 11.2238C6.13979 12.4077 5.50404 14.0124 5.50208 15.6865V17.4905C5.50208 17.9887 5.88756 18.3925 6.36308 18.3925C6.83859 18.3925 7.22408 17.9887 7.22408 17.4905ZM13.2512 14.7845C12.5661 14.7845 11.9092 15.0695 11.4246 15.5771C10.9402 16.0843 10.6681 16.7728 10.6681 17.4906C10.6681 18.2083 10.9401 18.8964 11.4246 19.4041C11.9091 19.9113 12.566 20.1966 13.2512 20.1966C13.9362 20.1966 14.5931 19.9113 15.0777 19.4041C15.5618 18.8965 15.8342 18.2083 15.8342 17.4906C15.8342 16.7729 15.5618 16.0844 15.0777 15.5771C14.5932 15.0695 13.9363 14.7845 13.2512 14.7845Z" fill="white"/>
</svg>
