<svg width="252" height="218" viewBox="0 0 252 218" fill="none" xmlns="http://www.w3.org/2000/svg">
<path d="M242.235 92.2413C242.235 46.0355 190.093 8.44749 126 8.44749C61.9073 8.44749 9.76498 46.0342 9.76498 92.2413C9.76498 92.7369 9.80344 93.2192 9.84958 94.1323C9.80536 94.6146 9.76498 95.097 9.76498 95.5943C9.76498 115.912 19.2263 135.46 36.5144 151.099L12.4297 206.659L105.552 181.373C112.373 182.278 119.239 182.741 126.004 182.741C190.097 182.741 242.239 143.645 242.239 95.5959C242.239 95.0936 242.201 94.603 242.147 93.7115C242.201 93.2226 242.239 92.7402 242.239 92.2429L242.235 92.2413ZM79.508 102.297H64.01V88.8899H79.508V102.297ZM133.752 102.297H118.254V88.8899H133.752V102.297ZM187.996 102.297H172.498V88.8899H187.996V102.297Z" fill="#9EF01A"/>
</svg>
