<svg width="38" height="34" viewBox="0 0 38 34" fill="none" xmlns="http://www.w3.org/2000/svg">
<path d="M36.5275 14.3862C36.5275 7.17984 28.6648 1.3175 19 1.3175C9.33523 1.3175 1.4725 7.17964 1.4725 14.3862C1.4725 14.4636 1.4783 14.5388 1.48526 14.6812C1.47859 14.7564 1.4725 14.8316 1.4725 14.9092C1.4725 18.078 2.89921 21.1267 5.50614 23.5659L1.87432 32.2313L15.9165 28.2876C16.9451 28.4287 17.9805 28.5008 19.0007 28.5008C28.6654 28.5008 36.5282 22.4034 36.5282 14.9095C36.5282 14.8311 36.5224 14.7546 36.5143 14.6156C36.5224 14.5393 36.5282 14.4641 36.5282 14.3865L36.5275 14.3862ZM11.9893 15.9546H9.6523V13.8636H11.9893V15.9546ZM20.1689 15.9546H17.8319V13.8636H20.1689V15.9546ZM28.3486 15.9546H26.0116V13.8636H28.3486V15.9546Z" fill="#9EF01A"/>
</svg>
