<svg width="49" height="45" viewBox="0 0 49 45" fill="none" xmlns="http://www.w3.org/2000/svg">
<path d="M47.1012 19.1175C47.1012 9.79156 36.9625 2.205 24.5 2.205C12.0375 2.205 1.89875 9.7913 1.89875 19.1175C1.89875 19.2175 1.90623 19.3149 1.9152 19.4992C1.9066 19.5965 1.89875 19.6939 1.89875 19.7943C1.89875 23.8951 3.73845 27.8405 7.10002 30.9971L2.41689 42.2111L20.5239 37.1075C21.8503 37.2901 23.1853 37.3834 24.5009 37.3834C36.9633 37.3834 47.1021 29.4926 47.1021 19.7946C47.1021 19.6932 47.0946 19.5942 47.0842 19.4142C47.0946 19.3156 47.1021 19.2182 47.1021 19.1178L47.1012 19.1175ZM15.4599 21.1471H12.4464V18.4411H15.4599V21.1471ZM26.0073 21.1471H22.9938V18.4411H26.0073V21.1471ZM36.5548 21.1471H33.5413V18.4411H36.5548V21.1471Z" fill="#9EF01A"/>
</svg>
