<svg width="48" height="48" viewBox="0 0 48 48" fill="none" xmlns="http://www.w3.org/2000/svg">
<circle cx="24" cy="24" r="23.5" fill="#9EF01A" stroke="white"/>
<path d="M21.3108 32.3519L18.723 33.6854L18.7233 33.6857C18.2221 33.9552 17.6304 34.056 17.0536 33.9701C16.4771 33.8842 15.9534 33.6171 15.5772 33.2167C15.2006 32.8163 14.9962 32.3088 15.0001 31.7853L16.7779 26.9682C16.9227 26.5768 17.1971 26.2341 17.5643 25.9856C17.9318 25.7368 18.3749 25.5942 18.8349 25.5762L25.2669 25.3594V25.3597C25.7692 25.3097 26.2115 25.0405 26.4478 24.6404C26.684 24.2405 26.684 23.7617 26.4478 23.3618C26.2115 22.9617 25.7691 22.6924 25.2669 22.6425L18.8349 22.4176C18.3749 22.3996 17.9318 22.2569 17.5643 22.0082C17.1971 21.7597 16.9227 21.417 16.7779 21.0256L15.0095 16.225H15.0091C15.0049 15.7011 15.2086 15.193 15.5842 14.7913C15.9597 14.3893 16.4824 14.1201 17.0592 14.0317C17.636 13.9433 18.2291 14.0413 18.7324 14.308L26.2536 18.1837L33.7748 22.0758C34.5334 22.4713 35 23.1984 35 23.9843C35 24.7706 34.5334 25.4974 33.7748 25.8929L26.2536 29.7682L25.0155 30.41L21.3108 32.3519Z" fill="white"/>
</svg>
